<?xml version="1.0" encoding="UTF-8" standalone="no"?>
<svg width="555px" height="233px" viewBox="0 0 555 233" version="1.1" xmlns="http://www.w3.org/2000/svg" xmlns:xlink="http://www.w3.org/1999/xlink">
    <!-- Generator: Sketch 3.7 (28169) - http://www.bohemiancoding.com/sketch -->
    <title>logo</title>
    <desc>Created with Sketch.</desc>
    <defs></defs>
    <g id="logo" stroke="none" stroke-width="1" fill="#fff" fill-rule="evenodd">
        <g id="s1hsgw" transform="translate(-440.000000, -287.000000)" stroke="#FFFFFF">
            <g id="logo" transform="translate(440.000000, 287.000000)">
                <path d="M12.9447905,66.3707031 L31.3083061,62.8373438 C31.3083061,64.6620925 31.3414829,66.2711649 31.4078374,67.6646094 C31.4741919,69.0580538 31.6483698,70.5758902 31.9303764,72.2181641 C32.212383,73.8604379 32.5939157,75.2040963 33.0749858,76.2491797 C33.5560559,77.294263 34.2361793,78.173447 35.1153764,78.8867578 C35.9945735,79.6000687 37.031347,79.9567188 38.225728,79.9567188 C41.8088709,79.9567188 43.6004155,77.6675229 43.6004155,73.0890625 C43.6004155,66.8185624 40.0670914,60.5813331 33.0003374,54.3771875 L27.3768217,49.5996875 C25.5852503,48.1067113 24.15865,46.8625831 23.096978,45.8672656 C22.035306,44.8719481 20.7828836,43.5282897 19.3396733,41.83625 C17.8964629,40.1442103 16.7684534,38.5102553 15.9556108,36.9343359 C15.1427682,35.3584166 14.4460564,33.4590476 13.8654545,31.2361719 C13.2848527,29.0132962 12.9945561,26.6577468 12.9945561,24.1694531 C12.9945561,16.9036355 15.3003403,11.1557633 19.911978,6.92566406 C24.5236156,2.69556479 30.6447263,0.580546875 38.2754936,0.580546875 C44.6123482,0.580546875 50.0035703,2.83656598 54.4493217,7.34867188 C58.8950731,11.8607778 61.1179155,17.301765 61.1179155,23.6717969 L61.0681499,24.31875 L61.0681499,25.8117188 L42.3562749,28.3995313 C42.3562749,28.0345815 42.3811574,27.4622825 42.4309233,26.6826172 C42.4806892,25.9029518 42.5055717,25.2642994 42.5055717,24.7666406 C42.5055717,23.5722597 42.4226298,22.4276617 42.2567436,21.3328125 C42.0908574,20.2379633 41.8171492,19.1431305 41.4356108,18.0482813 C41.0540724,16.953432 40.4651851,16.0825423 39.6689311,15.4355859 C38.8726771,14.7886296 37.9105513,14.4651563 36.7825249,14.4651563 C34.7918899,14.4651563 33.2989361,15.2448099 32.3036186,16.8041406 C31.3083011,18.3634713 30.8106499,20.2047811 30.8106499,22.328125 C30.8106499,24.186051 31.1009464,25.9278304 31.6815483,27.5535156 C32.2621502,29.1792008 33.1413341,30.6970372 34.3191264,32.1070703 C35.4969188,33.5171034 36.5834574,34.6865839 37.5787749,35.6155469 C38.5740923,36.5445099 39.9011624,37.6808136 41.5600249,39.0244922 C43.2188873,40.3681708 44.396662,41.3551791 45.0933842,41.9855469 C47.6480324,44.2415998 49.8045213,46.3566177 51.5629155,48.3306641 C53.3213097,50.3047104 54.9801473,52.5358469 56.539478,55.0241406 C58.0988087,57.5124343 59.2682892,60.1997512 60.0479545,63.0861719 C60.8276199,65.9725926 61.2174467,69.0912072 61.2174467,72.4421094 C61.2174467,78.7126095 58.978016,83.8467118 54.4990874,87.8445703 C50.0201587,91.8424288 44.5791715,93.8413281 38.1759624,93.8413281 C34.0288062,93.8413281 30.3461868,93.0782628 27.1279936,91.5521094 C23.9098004,90.0259559 21.3137196,87.9524089 19.3396733,85.3314063 C17.365627,82.7104036 15.8477906,79.8074378 14.7861186,76.6224219 C13.7244466,73.437406 13.1106767,70.0202005 12.9447905,66.3707031 L12.9447905,66.3707031 Z M85.8668787,92 L85.8668787,2.421875 L103.981566,2.421875 L103.981566,39.1489062 L116.970394,39.1489062 L116.970394,2.421875 L135.184613,2.421875 L135.184613,92 L116.970394,92 L116.970394,52.0382031 L103.981566,52.0382031 L103.981566,92 L85.8668787,92 Z M162.869748,58.7067969 L162.869748,2.421875 L180.984436,2.421875 L180.984436,58.159375 C180.984436,61.3443909 181.001024,63.6584693 181.034201,65.1016797 C181.067379,66.54489 181.15032,68.3032579 181.283029,70.3768359 C181.415738,72.450414 181.647976,73.9018969 181.979748,74.7313281 C182.311521,75.5607594 182.767701,76.4565316 183.348303,77.4186719 C183.928905,78.3808121 184.683676,79.0111704 185.612639,79.3097656 C186.541602,79.6083609 187.669611,79.7576562 188.996701,79.7576562 C190.323791,79.7576562 191.451801,79.6083609 192.380764,79.3097656 C193.309727,79.0111704 194.064498,78.3891063 194.6451,77.4435547 C195.225702,76.4980031 195.681882,75.610525 196.013654,74.7810937 C196.345427,73.9516625 196.577664,72.516768 196.710373,70.4763672 C196.843082,68.4359664 196.926024,66.7107753 196.959201,65.3007422 C196.992379,63.8907091 197.008967,61.6098074 197.008967,58.4579687 L197.008967,58.159375 L197.008967,2.421875 L215.123654,2.421875 L215.123654,58.7067969 C215.123654,61.5600403 215.040713,64.1478269 214.874826,66.4702344 C214.70894,68.7926418 214.393761,71.1979563 213.929279,73.68625 C213.464798,76.1745437 212.83444,78.3725035 212.038186,80.2801953 C211.241932,82.1878871 210.180276,84.0126085 208.853186,85.7544141 C207.526096,87.4962196 205.958494,88.9311142 204.150334,90.0591406 C202.342174,91.1871671 200.160803,92.0829394 197.606154,92.7464844 C195.051506,93.4100294 192.181717,93.7417969 188.996701,93.7417969 C185.811685,93.7417969 182.941896,93.4100294 180.387248,92.7464844 C177.8326,92.0829394 175.659523,91.1871671 173.867951,90.0591406 C172.07638,88.9311142 170.517073,87.4962196 169.189983,85.7544141 C167.862893,84.0126085 166.801237,82.1878871 166.004983,80.2801953 C165.208729,78.3725035 164.570076,76.1745437 164.089006,73.68625 C163.607936,71.1979563 163.284463,68.7926418 163.118576,66.4702344 C162.95269,64.1478269 162.869748,61.5600403 162.869748,58.7067969 L162.869748,58.7067969 Z M242.80879,92 L242.80879,2.37210938 L255.847383,2.37210938 L275.504805,49.2513281 L275.504805,2.37210938 L290.534024,2.37210938 L290.534024,92 L277.993086,92 L258.38543,42.2841406 L258.38543,92 L242.80879,92 Z M318.617284,92 L318.617284,2.421875 L336.731972,2.421875 L336.731972,92 L318.617284,92 Z M363.670622,62.0908594 L363.670622,32.4305469 C363.670622,11.2634619 372.329754,0.680078125 389.648279,0.680078125 C393.297776,0.680078125 396.540803,1.16943521 399.377458,2.14816406 C402.214113,3.12689291 404.594545,4.47884554 406.518825,6.2040625 C408.443106,7.92927946 410.027296,10.0525916 411.271443,12.5740625 C412.515589,15.0955334 413.411362,17.8326154 413.958786,20.7853906 C414.506211,23.7381658 414.779919,26.9894875 414.779919,30.5394531 L414.779919,38.253125 L396.963825,38.253125 L396.963825,29.9920313 C396.963825,28.366346 396.930649,26.9646283 396.864294,25.7868359 C396.79794,24.6090436 396.623762,23.2653852 396.341755,21.7558203 C396.059749,20.2462555 395.678216,19.0187157 395.197146,18.0731641 C394.716076,17.1276125 394.002775,16.3230762 393.057224,15.6595313 C392.111672,14.9959863 390.975369,14.6642188 389.648279,14.6642188 C384.406273,14.6642188 381.78531,19.0767267 381.78531,27.901875 L381.78531,66.5697656 C381.78531,75.3617367 384.406273,79.7576563 389.648279,79.7576563 C391.207609,79.7576563 392.518091,79.3097701 393.579763,78.4139844 C394.641435,77.5181986 395.4045,76.2491879 395.868982,74.6069141 C396.333463,72.9646402 396.648642,71.3555678 396.814529,69.7796484 C396.980415,68.2037291 397.063357,66.4038903 397.063357,64.3800781 L397.063357,55.1734375 L414.779919,55.1734375 L414.779919,62.7378125 C414.713565,66.1550692 414.431562,69.3068606 413.933904,72.1932813 C413.436245,75.0797019 412.590238,77.8831374 411.395857,80.6036719 C410.201476,83.3242063 408.683639,85.6216964 406.842302,87.4962109 C405.000965,89.3707255 402.620533,90.8802677 399.700935,92.0248828 C396.781337,93.1694979 393.430485,93.7417969 389.648279,93.7417969 C385.76654,93.7417969 382.324452,93.1860863 379.321911,92.0746484 C376.31937,90.9632106 373.847702,89.4702568 371.906833,87.5957422 C369.965964,85.7212276 368.365186,83.4154434 367.10445,80.6783203 C365.843715,77.9411973 364.956237,75.0631141 364.441989,72.0439844 C363.927742,69.0248547 363.670622,65.7071795 363.670622,62.0908594 L363.670622,62.0908594 Z M440.673492,92 L440.673492,2.421875 L458.788179,2.421875 L458.788179,39.1489062 L471.777007,39.1489062 L471.777007,2.421875 L489.991226,2.421875 L489.991226,92 L471.777007,92 L471.777007,52.0382031 L458.788179,52.0382031 L458.788179,92 L440.673492,92 Z M518.074486,92 L518.074486,2.421875 L536.189174,2.421875 L536.189174,92 L518.074486,92 Z" id="SHUNICHI"></path>
                <path d="M16.0302592,230.219968 L16.0302592,140.641843 L34.1449467,140.641843 L34.1449467,177.368874 L47.1337749,177.368874 L47.1337749,140.641843 L65.3479936,140.641843 L65.3479936,230.219968 L47.1337749,230.219968 L47.1337749,190.258171 L34.1449467,190.258171 L34.1449467,230.219968 L16.0302592,230.219968 Z M106.406146,199.912703 L115.662553,199.912703 L111.133881,166.669265 L106.406146,199.912703 Z M83.7130213,230.219968 L103.071849,140.641843 L119.096381,140.641843 L138.405443,230.219968 L120.539584,230.219968 L116.856928,211.060203 L105.162006,211.060203 L101.678412,230.219968 L83.7130213,230.219968 Z M153.685002,204.590671 L172.048518,201.057312 C172.048518,202.882061 172.081694,204.491133 172.148049,205.884578 C172.214403,207.278022 172.388581,208.795858 172.670588,210.438132 C172.952595,212.080406 173.334127,213.424065 173.815197,214.469148 C174.296267,215.514231 174.976391,216.393415 175.855588,217.106726 C176.734785,217.820037 177.771559,218.176687 178.96594,218.176687 C182.549082,218.176687 184.340627,215.887491 184.340627,211.309031 C184.340627,205.038531 180.807303,198.801301 173.740549,192.597156 L168.117033,187.819656 C166.325462,186.32668 164.898862,185.082551 163.83719,184.087234 C162.775518,183.091916 161.523095,181.748258 160.079885,180.056218 C158.636675,178.364179 157.508665,176.730224 156.695822,175.154304 C155.88298,173.578385 155.186268,171.679016 154.605666,169.45614 C154.025064,167.233264 153.734768,164.877715 153.734768,162.389421 C153.734768,155.123604 156.040552,149.375732 160.65219,145.145632 C165.263827,140.915533 171.384938,138.800515 179.015705,138.800515 C185.35256,138.800515 190.743782,141.056534 195.189533,145.56864 C199.635285,150.080746 201.858127,155.521733 201.858127,161.891765 L201.808361,162.538718 L201.808361,164.031687 L183.096486,166.619499 C183.096486,166.25455 183.121369,165.682251 183.171135,164.902585 C183.220901,164.12292 183.245783,163.484268 183.245783,162.986609 C183.245783,161.792228 183.162841,160.64763 182.996955,159.552781 C182.831069,158.457932 182.557361,157.363099 182.175822,156.268249 C181.794284,155.1734 181.205397,154.302511 180.409143,153.655554 C179.612889,153.008598 178.650763,152.685124 177.522736,152.685124 C175.532101,152.685124 174.039148,153.464778 173.04383,155.024109 C172.048513,156.58344 171.550861,158.424749 171.550861,160.548093 C171.550861,162.406019 171.841158,164.147799 172.42176,165.773484 C173.002362,167.399169 173.881546,168.917005 175.059338,170.327039 C176.23713,171.737072 177.323669,172.906552 178.318986,173.835515 C179.314304,174.764478 180.641374,175.900782 182.300236,177.24446 C183.959099,178.588139 185.136874,179.575147 185.833596,180.205515 C188.388244,182.461568 190.544733,184.576586 192.303127,186.550632 C194.061521,188.524679 195.720359,190.755815 197.27969,193.244109 C198.83902,195.732403 200.008501,198.419719 200.788166,201.30614 C201.567831,204.192561 201.957658,207.311175 201.957658,210.662078 C201.957658,216.932578 199.718228,222.06668 195.239299,226.064539 C190.76037,230.062397 185.319383,232.061296 178.916174,232.061296 C174.769018,232.061296 171.086398,231.298231 167.868205,229.772078 C164.650012,228.245924 162.053931,226.172377 160.079885,223.551374 C158.105839,220.930372 156.588002,218.027406 155.52633,214.84239 C154.464658,211.657374 153.850888,208.240169 153.685002,204.590671 L153.685002,204.590671 Z M221.765889,230.219968 L221.765889,140.641843 L259.139873,140.641843 L259.139873,153.083249 L239.880577,153.083249 L239.880577,177.468406 L253.516358,177.468406 L253.516358,190.208406 L239.880577,190.208406 L239.880577,217.778562 L259.139873,217.778562 L259.139873,230.219968 L221.765889,230.219968 Z M277.05701,202.201921 L277.05701,170.650515 C277.05701,149.48343 285.865438,138.900046 303.482557,138.900046 C307.198409,138.900046 310.50779,139.389403 313.4108,140.368132 C316.313809,141.346861 318.744006,142.698814 320.701464,144.424031 C322.658921,146.149248 324.267994,148.27256 325.528729,150.794031 C326.789465,153.315502 327.701825,156.052584 328.265839,159.005359 C328.829852,161.958134 329.111854,165.209456 329.111854,168.759421 L329.111854,174.034578 L311.793417,174.034578 L311.793417,167.764109 C311.793417,166.204778 311.751946,164.836237 311.669003,163.658445 C311.58606,162.480652 311.378705,161.170171 311.046932,159.72696 C310.71516,158.28375 310.267274,157.097681 309.70326,156.168718 C309.139247,155.239755 308.326417,154.460102 307.264745,153.829734 C306.203073,153.199366 304.942356,152.884187 303.482557,152.884187 C297.941957,152.884187 295.171698,157.296695 295.171698,166.121843 L295.171698,204.789734 C295.171698,213.581705 297.941957,217.977624 303.482557,217.977624 C308.989981,217.977624 311.743651,213.415821 311.743651,204.292078 L311.743651,197.125828 L301.491932,197.125828 L301.491932,184.136999 L329.858339,184.136999 L329.858339,230.219968 L317.416932,230.219968 L315.127714,223.949499 C313.60156,226.338261 311.428483,228.270807 308.608417,229.747195 C305.788351,231.223582 302.885385,231.961765 299.899432,231.961765 C296.681239,231.961765 293.753391,231.372878 291.1158,230.195085 C288.478208,229.017293 286.305131,227.457986 284.596503,225.517117 C282.887874,223.576248 281.45298,221.295346 280.291776,218.674343 C279.130572,216.053341 278.301154,213.374318 277.803495,210.637195 C277.305836,207.900072 277.05701,205.088342 277.05701,202.201921 L277.05701,202.201921 Z M370.219773,199.912703 L379.476179,199.912703 L374.947507,166.669265 L370.219773,199.912703 Z M347.526648,230.219968 L366.885476,140.641843 L382.910007,140.641843 L402.219069,230.219968 L384.35321,230.219968 L380.670554,211.060203 L368.975632,211.060203 L365.492038,230.219968 L347.526648,230.219968 Z M427.15316,230.219968 L414.761519,140.641843 L430.188863,140.641843 L435.762613,199.962468 L443.426519,140.641843 L456.713941,140.641843 L464.22855,199.614109 L470.051128,140.641843 L485.528238,140.641843 L472.9873,230.219968 L457.510191,230.219968 L449.995581,171.596062 L442.630269,230.219968 L427.15316,230.219968 Z M522.306547,199.912703 L531.562953,199.912703 L527.034281,166.669265 L522.306547,199.912703 Z M499.613422,230.219968 L518.97225,140.641843 L534.996781,140.641843 L554.305843,230.219968 L536.439984,230.219968 L532.757328,211.060203 L521.062406,211.060203 L517.578812,230.219968 L499.613422,230.219968 Z" id="HASEGAWA"></path>
                <path data-ignore="true" d="M1.5,116.5 L551.055362,114 L1.5,116.5 Z" id="line" stroke-opacity="0" stroke-width="3" stroke-linecap="round" stroke-linejoin="round"></path>
            </g>
        </g>
    </g>
</svg>